<?xml version="1.0" standalone="no"?>
<!DOCTYPE svg PUBLIC "-//W3C//DTD SVG 20010904//EN"
 "http://www.w3.org/TR/2001/REC-SVG-20010904/DTD/svg10.dtd">
<svg version="1.0" xmlns="http://www.w3.org/2000/svg"
 width="389.000000pt" height="129.000000pt" viewBox="0 0 389.000000 129.000000"
 preserveAspectRatio="xMidYMid meet">
<metadata>
Created by potrace 1.16, written by Peter Selinger 2001-2019
</metadata>
<g transform="translate(0.000000,129.000000) scale(0.100000,-0.100000)"
fill="#000000" stroke="none">
<path d="M0 1220 l0 -70 58 0 59 0 62 -232 c75 -282 77 -288 84 -268 3 8 31
109 62 225 82 307 66 275 134 275 l58 0 69 -254 c38 -140 72 -252 75 -248 4 4
36 116 72 250 36 134 67 246 70 248 3 3 29 4 60 2 l54 -3 -92 -335 c-50 -184
-95 -347 -99 -363 -6 -26 -9 -27 -65 -27 l-59 0 -14 48 c-8 26 -39 140 -69
254 -29 115 -56 208 -59 208 -3 0 -36 -115 -74 -255 l-69 -255 -58 0 -58 0
-16 52 c-8 29 -53 190 -99 358 l-85 305 0 -567 -1 -568 733 0 c704 0 731 1
697 18 -19 9 -40 28 -47 42 -30 59 -3 175 65 285 l37 60 5 265 5 265 58 3 57
3 0 -261 0 -260 -33 0 c-30 0 -37 -6 -70 -62 -152 -256 -20 -335 294 -177 89
44 261 158 362 239 l67 54 0 233 0 233 44 0 c35 0 45 -4 49 -19 5 -20 5 -20
56 0 75 28 149 25 197 -7 l38 -26 19 23 c33 40 89 167 94 212 6 53 -22 93 -71
103 -74 13 -264 -61 -432 -171 l-84 -55 0 -290 0 -290 -60 0 -60 0 0 365 0
365 23 0 c12 0 39 3 60 6 l37 7 0 -52 c0 -28 2 -51 4 -51 3 0 42 23 88 52 114
70 252 135 340 158 l73 19 -1322 0 -1323 1 0 -70z m1090 -181 c0 -121 0 -121
23 -114 12 3 56 9 98 12 95 7 132 -10 160 -70 16 -37 19 -67 19 -244 l0 -203
-54 0 -54 0 -4 183 c-3 197 -6 209 -58 229 -14 5 -49 7 -77 3 l-53 -6 0 -205
0 -204 -60 0 -60 0 0 364 0 365 38 4 c91 9 82 22 82 -114z m512 84 c21 -19 24
-81 6 -106 -7 -9 -27 -20 -45 -23 -62 -12 -106 68 -67 124 19 27 78 30 106 5z
m189 -207 l11 -24 42 24 c25 15 57 24 84 24 l42 0 0 -55 0 -55 -56 0 c-98 0
-94 8 -94 -215 l0 -195 -60 0 -60 0 0 253 c0 140 3 257 7 260 3 4 21 7 40 7
26 0 36 -6 44 -24z"/>
<path d="M2747 1283 c33 -6 72 -51 79 -90 13 -68 -34 -192 -126 -328 -44 -67
-46 -72 -38 -115 18 -91 -7 -212 -54 -266 -49 -56 -82 -68 -175 -67 l-83 1 0
-113 0 -112 -37 -7 c-86 -14 -83 -17 -83 84 0 82 -8 107 -25 80 -11 -18 -202
-150 -292 -202 -106 -61 -228 -115 -303 -133 -47 -11 114 -13 1113 -14 l1167
-1 0 95 c0 69 -3 95 -12 95 -7 0 -24 17 -38 38 l-25 37 -3 -38 c-5 -62 -27
-39 -27 28 0 71 14 80 49 28 l26 -38 0 38 c0 26 4 37 15 37 11 0 15 12 15 50
l0 50 -60 0 -60 0 0 364 0 363 60 7 60 7 0 64 0 65 -582 -1 c-321 -1 -573 -4
-561 -6z m319 -362 c85 -39 119 -121 112 -274 -3 -74 -9 -100 -28 -135 -46
-82 -156 -119 -270 -92 -104 25 -155 111 -154 260 0 131 36 204 119 241 55 25
166 25 221 0z m541 -13 c25 -17 49 -45 64 -75 21 -42 24 -62 24 -158 0 -94 -3
-116 -22 -151 -45 -85 -120 -121 -230 -111 -93 9 -137 38 -179 117 -15 28 -19
57 -19 145 0 95 3 116 23 153 46 86 99 113 218 109 68 -2 87 -6 121 -29z"/>
<path d="M2899 835 c-45 -24 -67 -110 -54 -211 9 -76 45 -117 101 -117 85 0
114 44 114 173 0 95 -18 146 -55 160 -36 14 -75 12 -106 -5z"/>
<path d="M3400 822 c-33 -34 -45 -92 -38 -186 6 -75 28 -112 73 -125 93 -25
145 35 145 169 0 115 -36 170 -112 170 -30 0 -46 -7 -68 -28z"/>
<path d="M2368 823 c-16 -4 -18 -18 -18 -121 l1 -117 89 93 c50 51 90 99 90
107 0 33 -97 55 -162 38z"/>
</g>
</svg>
